{"accessors":[{"bufferView":0,"byteOffset":0,"componentType":5126,"count":20,"max":[0.200000002980232,0.200000002980232,0.100000001490116],"min":[-0.200000002980232,-0.200000002980232,-0.100000001490116],"normalized":false,"type":"VEC3"},{"bufferView":1,"byteOffset":0,"componentType":5126,"count":20,"max":[1.0,0.0,1.0,1.0],"min":[-1.0,-0.0000152592547237873,-1.0,1.0],"normalized":false,"type":"VEC4"},{"bufferView":2,"byteOffset":0,"componentType":5126,"count":20,"max":[0.894423067569733,0.447221845388412,1.0],"min":[-0.894435405731201,-1.0,-1.0],"normalized":false,"type":"VEC3"},{"bufferView":3,"byteOffset":0,"componentType":5126,"count":20,"max":[1.0,1.0],"min":[0.0,0.0],"normalized":false,"type":"VEC2"},{"bufferView":4,"byteOffset":0,"componentType":5123,"count":24,"max":[19.0],"min":[2.0],"normalized":false,"type":"SCALAR"},{"bufferView":5,"byteOffset":0,"componentType":5126,"count":24,"max":[0.100000001490116,0.100000001490116,0.125],"min":[-0.100000001490116,-0.100000001490116,-0.125],"normalized":false,"type":"VEC3"},{"bufferView":6,"byteOffset":0,"componentType":5126,"count":24,"max":[1.0,0.0,1.0,1.0],"min":[-1.0,-0.0000152592547237873,-1.0,1.0],"normalized":false,"type":"VEC4"},{"bufferView":7,"byteOffset":0,"componentType":5126,"count":24,"max":[1.0,1.0,1.0],"min":[-1.0,-1.0,-1.0],"normalized":false,"type":"VEC3"},{"bufferView":8,"byteOffset":0,"componentType":5126,"count":24,"max":[1.0,1.0],"min":[0.0,0.0],"normalized":false,"type":"VEC2"},{"bufferView":9,"byteOffset":0,"componentType":5123,"count":36,"max":[23.0],"min":[0.0],"normalized":false,"type":"SCALAR"}],"asset":{"generator":"Godot Engine v4.4.1.stable.official@49a5bc7b616bd04689a2c89e89bda41f50241464","version":"2.0"},"bufferViews":[{"buffer":0,"byteLength":240,"byteOffset":0,"byteStride":12,"target":34962},{"buffer":0,"byteLength":320,"byteOffset":240,"byteStride":16,"target":34962},{"buffer":0,"byteLength":240,"byteOffset":560,"byteStride":12,"target":34962},{"buffer":0,"byteLength":160,"byteOffset":800,"byteStride":8,"target":34962},{"buffer":0,"byteLength":48,"byteOffset":960,"target":34963},{"buffer":0,"byteLength":288,"byteOffset":1008,"byteStride":12,"target":34962},{"buffer":0,"byteLength":384,"byteOffset":1296,"byteStride":16,"target":34962},{"buffer":0,"byteLength":288,"byteOffset":1680,"byteStride":12,"target":34962},{"buffer":0,"byteLength":192,"byteOffset":1968,"byteStride":8,"target":34962},{"buffer":0,"byteLength":72,"byteOffset":2160,"target":34963}],"buffers":[{"byteLength":2232,"uri":"おにぎり0.bin"}],"extensionsUsed":["GODOT_single_root"],"materials":[{"extensions":{},"pbrMetallicRoughness":{"baseColorFactor":[0.913098692893982,0.887923181056976,0.82278573513031,1.0],"metallicFactor":0.0,"roughnessFactor":1.0}},{"extensions":{},"pbrMetallicRoughness":{"baseColorFactor":[0.0843762159347534,0.111932419240475,0.0781874135136604,1.0],"metallicFactor":0.0,"roughnessFactor":1.0}}],"meshes":[{"extras":{"targetNames":[]},"primitives":[{"attributes":{"NORMAL":2,"POSITION":0,"TANGENT":1,"TEXCOORD_0":3},"indices":4,"material":0,"mode":4}]},{"extras":{"targetNames":[]},"primitives":[{"attributes":{"NORMAL":7,"POSITION":5,"TANGENT":6,"TEXCOORD_0":8},"indices":9,"material":1,"mode":4}]}],"nodes":[{"children":[1],"mesh":0,"name":"おにぎり"},{"mesh":1,"name":"のり","translation":[0.0,-0.130191460251808,0.0]}],"scene":0,"scenes":[{"nodes":[0]}]}