{"accessors":[{"bufferView":0,"byteOffset":0,"componentType":5126,"count":4,"max":[3.0,0.0,3.0],"min":[-3.0,0.0,-3.0],"normalized":false,"type":"VEC3"},{"bufferView":1,"byteOffset":0,"componentType":5126,"count":4,"max":[1.0,0.0,-0.0000152590218931437,1.0],"min":[1.0,0.0,-0.0000152590218931437,1.0],"normalized":false,"type":"VEC4"},{"bufferView":2,"byteOffset":0,"componentType":5126,"count":4,"max":[0.0,1.0,-0.0000152590218931437],"min":[0.0,1.0,-0.0000152590218931437],"normalized":false,"type":"VEC3"},{"bufferView":3,"byteOffset":0,"componentType":5126,"count":4,"max":[1.0,1.0],"min":[0.0,0.0],"normalized":false,"type":"VEC2"},{"bufferView":4,"byteOffset":0,"componentType":5123,"count":6,"max":[3.0],"min":[0.0],"normalized":false,"type":"SCALAR"},{"bufferView":5,"byteOffset":0,"componentType":5126,"count":4,"max":[3.0,0.0,1.0],"min":[-3.0,0.0,-1.0],"normalized":false,"type":"VEC3"},{"bufferView":6,"byteOffset":0,"componentType":5126,"count":4,"max":[1.0,0.0,-0.0000152590218931437,1.0],"min":[1.0,0.0,-0.0000152590218931437,1.0],"normalized":false,"type":"VEC4"},{"bufferView":7,"byteOffset":0,"componentType":5126,"count":4,"max":[0.0,1.0,-0.0000152590218931437],"min":[0.0,1.0,-0.0000152590218931437],"normalized":false,"type":"VEC3"},{"bufferView":8,"byteOffset":0,"componentType":5126,"count":4,"max":[1.0,1.0],"min":[0.0,0.0],"normalized":false,"type":"VEC2"},{"bufferView":9,"byteOffset":0,"componentType":5123,"count":6,"max":[3.0],"min":[0.0],"normalized":false,"type":"SCALAR"}],"asset":{"generator":"Godot Engine v4.4.1.stable.official@49a5bc7b616bd04689a2c89e89bda41f50241464","version":"2.0"},"bufferViews":[{"buffer":0,"byteLength":48,"byteOffset":0,"byteStride":12,"target":34962},{"buffer":0,"byteLength":64,"byteOffset":48,"byteStride":16,"target":34962},{"buffer":0,"byteLength":48,"byteOffset":112,"byteStride":12,"target":34962},{"buffer":0,"byteLength":32,"byteOffset":160,"byteStride":8,"target":34962},{"buffer":0,"byteLength":12,"byteOffset":192,"target":34963},{"buffer":0,"byteLength":48,"byteOffset":204,"byteStride":12,"target":34962},{"buffer":0,"byteLength":64,"byteOffset":252,"byteStride":16,"target":34962},{"buffer":0,"byteLength":48,"byteOffset":316,"byteStride":12,"target":34962},{"buffer":0,"byteLength":32,"byteOffset":364,"byteStride":8,"target":34962},{"buffer":0,"byteLength":12,"byteOffset":396,"target":34963}],"buffers":[{"byteLength":408,"uri":"店0.bin"}],"extensionsUsed":["GODOT_single_root"],"materials":[{"extensions":{},"pbrMetallicRoughness":{"baseColorFactor":[0.249947354197502,0.459967911243439,0.236972689628601,1.0],"metallicFactor":0.0,"roughnessFactor":1.0}},{"extensions":{},"pbrMetallicRoughness":{"baseColorFactor":[0.456411063671112,0.737910449504852,0.846873164176941,1.0],"metallicFactor":0.0,"roughnessFactor":1.0}}],"meshes":[{"extras":{"targetNames":[]},"primitives":[{"attributes":{"NORMAL":2,"POSITION":0,"TANGENT":1,"TEXCOORD_0":3},"indices":4,"material":0,"mode":4}]},{"extras":{"targetNames":[]},"primitives":[{"attributes":{"NORMAL":7,"POSITION":5,"TANGENT":6,"TEXCOORD_0":8},"indices":9,"material":1,"mode":4}]}],"nodes":[{"children":[1,2],"name":"店"},{"mesh":0,"name":"ゆか"},{"mesh":1,"name":"かべ","rotation":[0.70710676908493,0.0,0.0,0.70710676908493],"translation":[0.0,1.0,-3.0]}],"scene":0,"scenes":[{"nodes":[0]}]}